<?xml version="1.0" encoding="UTF-8"?>
<svg xmlns="http://www.w3.org/2000/svg" width="1024" height="1024" viewBox="0 0 1024 1024" role="img" aria-labelledby="title desc">
  <title id="title">Mora O IP</title>
  <desc id="desc">A calm eccentric ink-black O character wearing Mora's active green knowledge node at the upper right.</desc>
  <g id="mora-o-character" stroke-linecap="round" stroke-linejoin="round">
    <path fill="#202523" fill-rule="evenodd" d="M515 256C621 255 703 321 729 420C757 527 709 640 614 692C520 744 401 715 334 637C267 559 262 440 317 352C359 284 431 252 515 256ZM507 383C557 379 596 410 608 456C622 512 597 567 550 591C503 615 447 599 417 561C387 523 388 466 416 429C438 400 469 386 507 383Z"/>
    <circle cx="474" cy="343" r="11" fill="#F7F9F8"/>
    <circle cx="524" cy="339" r="11" fill="#F7F9F8"/>
    <rect id="active-node-hat" x="576" y="217" width="72" height="72" rx="5" transform="rotate(45 612 253)" fill="#12A77C"/>
    <g fill="none" stroke="#202523" stroke-width="13">
      <path d="M424 698C412 732 415 760 429 784M577 698C590 731 587 760 573 786"/>
      <path d="M411 787C424 794 437 793 450 787M556 789C569 795 583 794 596 788"/>
    </g>
  </g>
</svg>
