<?xml version="1.0" encoding="UTF-8"?>
<svg xmlns="http://www.w3.org/2000/svg" width="1600" height="1000" viewBox="0 0 1600 1000" role="img" aria-labelledby="title desc">
  <title id="title">Mora icon system preview</title>
  <desc id="desc">A presentation board showing the Mora app icon, dark-context mark, monochrome mark, and small-size favicon.</desc>
  <rect width="1600" height="1000" fill="#FFFFFF"/>
  <text x="96" y="116" fill="#202523" font-family="Inter, Microsoft YaHei, sans-serif" font-size="42" font-weight="650">Mora Icon System</text>
  <text x="96" y="158" fill="#68716D" font-family="Inter, Microsoft YaHei, sans-serif" font-size="18">Eccentric O + active knowledge node</text>
  <g transform="translate(96 228)">
    <rect width="512" height="512" rx="112" fill="#F3F6F4"/>
    <g transform="scale(.5)">
      <path d="M755 544C755 704 650 804 503 798C355 792 264 689 275 536C284 383 386 282 528 292C665 301 750 398 755 544Z" fill="#202523"/>
      <path d="M611 538C611 614 562 661 494 658C425 655 383 607 388 535C392 463 439 416 505 420C569 424 609 469 611 538Z" fill="#F3F6F4"/>
      <rect x="673" y="246" width="154" height="154" rx="14" transform="rotate(45 750 323)" fill="#12A77C"/>
    </g>
    <text x="0" y="566" fill="#202523" font-family="Inter, Microsoft YaHei, sans-serif" font-size="22" font-weight="600">Primary app icon</text>
    <text x="0" y="596" fill="#68716D" font-family="Inter, Microsoft YaHei, sans-serif" font-size="16">1024 × 1024 / light field</text>
  </g>
  <g transform="translate(704 228)">
    <rect width="352" height="352" rx="8" fill="#121614"/>
    <g transform="translate(48 48) scale(.25)">
      <path d="M755 544C755 704 650 804 503 798C355 792 264 689 275 536C284 383 386 282 528 292C665 301 750 398 755 544Z" fill="#F3F6F4"/>
      <path d="M611 538C611 614 562 661 494 658C425 655 383 607 388 535C392 463 439 416 505 420C569 424 609 469 611 538Z" fill="#121614"/>
      <rect x="673" y="246" width="154" height="154" rx="14" transform="rotate(45 750 323)" fill="#12A77C"/>
    </g>
    <text x="0" y="406" fill="#202523" font-family="Inter, Microsoft YaHei, sans-serif" font-size="22" font-weight="600">Dark context</text>
    <text x="0" y="436" fill="#68716D" font-family="Inter, Microsoft YaHei, sans-serif" font-size="16">Warm white mark / green node</text>
  </g>
  <g transform="translate(1152 228)">
    <rect width="352" height="352" rx="8" fill="#F3F6F4"/>
    <g transform="translate(48 48) scale(.25)" fill="#202523">
      <path d="M755 544C755 704 650 804 503 798C355 792 264 689 275 536C284 383 386 282 528 292C665 301 750 398 755 544ZM611 538C609 469 569 424 505 420C439 416 392 463 388 535C383 607 425 655 494 658C562 661 611 614 611 538Z" fill-rule="evenodd"/>
      <rect x="673" y="246" width="154" height="154" rx="14" transform="rotate(45 750 323)"/>
    </g>
    <text x="0" y="406" fill="#202523" font-family="Inter, Microsoft YaHei, sans-serif" font-size="22" font-weight="600">Monochrome</text>
    <text x="0" y="436" fill="#68716D" font-family="Inter, Microsoft YaHei, sans-serif" font-size="16">Masks / engraving / one-color</text>
  </g>
  <g transform="translate(704 774)">
    <text x="0" y="0" fill="#202523" font-family="Inter, Microsoft YaHei, sans-serif" font-size="18" font-weight="600">Optical sizes</text>
    <g transform="translate(0 38)">
      <g transform="scale(2)"><path d="M24.5 17.2C24.5 23.2 20.5 27 14.9 26.8C9.3 26.6 5.8 22.7 6.2 16.9C6.5 11.1 10.4 7.3 15.8 7.7C21 8 24.3 11.7 24.5 17.2ZM19 17C18.9 14.4 17.4 12.7 15 12.6C12.5 12.4 10.7 14.2 10.6 16.9C10.4 19.6 12 21.4 14.6 21.5C17.1 21.6 19 19.8 19 17Z" fill="#202523" fill-rule="evenodd"/><rect x="22" y="5" width="6" height="6" rx=".7" transform="rotate(45 25 8)" fill="#12A77C"/></g>
      <g transform="translate(112 16)"><path d="M24.5 17.2C24.5 23.2 20.5 27 14.9 26.8C9.3 26.6 5.8 22.7 6.2 16.9C6.5 11.1 10.4 7.3 15.8 7.7C21 8 24.3 11.7 24.5 17.2ZM19 17C18.9 14.4 17.4 12.7 15 12.6C12.5 12.4 10.7 14.2 10.6 16.9C10.4 19.6 12 21.4 14.6 21.5C17.1 21.6 19 19.8 19 17Z" fill="#202523" fill-rule="evenodd"/><rect x="22" y="5" width="6" height="6" rx=".7" transform="rotate(45 25 8)" fill="#12A77C"/></g>
      <g transform="translate(192 24) scale(.5)"><path d="M24.5 17.2C24.5 23.2 20.5 27 14.9 26.8C9.3 26.6 5.8 22.7 6.2 16.9C6.5 11.1 10.4 7.3 15.8 7.7C21 8 24.3 11.7 24.5 17.2ZM19 17C18.9 14.4 17.4 12.7 15 12.6C12.5 12.4 10.7 14.2 10.6 16.9C10.4 19.6 12 21.4 14.6 21.5C17.1 21.6 19 19.8 19 17Z" fill="#202523" fill-rule="evenodd"/><rect x="22" y="5" width="6" height="6" rx=".7" transform="rotate(45 25 8)" fill="#12A77C"/></g>
      <text x="0" y="94" fill="#68716D" font-family="Inter, Microsoft YaHei, sans-serif" font-size="14">64</text>
      <text x="112" y="94" fill="#68716D" font-family="Inter, Microsoft YaHei, sans-serif" font-size="14">32</text>
      <text x="192" y="94" fill="#68716D" font-family="Inter, Microsoft YaHei, sans-serif" font-size="14">16</text>
    </g>
  </g>
</svg>
