<?xml version="1.0" encoding="UTF-8"?>
<svg xmlns="http://www.w3.org/2000/svg" width="1080" height="1080" viewBox="0 0 1080 1080" role="img" aria-label="Mora IP cover template">
  <style>text{font-family:Inter,"Microsoft YaHei",sans-serif;letter-spacing:0}.light{fill:#202523}.muted{fill:#626B67}.green{fill:#12A77C}.brand-green{fill:#12A77C}.title{font-size:76px;font-weight:700}.meta{font-size:22px;font-weight:650}.body{font-size:29px}</style>
  <rect width="1080" height="1080" fill="#F7F9F8"/>
  <text x="72" y="92" class="green meta">MORA NOTES / 03</text><text x="1008" y="92" text-anchor="end" class="muted meta">ACTIVE KNOWLEDGE</text>
  <g id="editable-title" class="light title"><text x="72" y="285">把知识从</text><text x="72" y="378">“保存过”变成</text><text x="72" y="471">“用得上”。</text></g>
  <text x="72" y="550" class="muted body">适用于观点、方法和产品叙事封面</text>
  <g id="mora-ip" transform="translate(530 380) scale(.72)">
    <path fill="#202523" fill-rule="evenodd" d="M515 256C621 255 703 321 729 420C757 527 709 640 614 692C520 744 401 715 334 637C267 559 262 440 317 352C359 284 431 252 515 256ZM507 383C557 379 596 410 608 456C622 512 597 567 550 591C503 615 447 599 417 561C387 523 388 466 416 429C438 400 469 386 507 383Z"/>
    <circle cx="474" cy="343" r="11" fill="#F7F9F8"/><circle cx="524" cy="339" r="11" fill="#F7F9F8"/>
    <rect x="576" y="217" width="72" height="72" rx="5" transform="rotate(45 612 253)" class="brand-green"/>
    <g fill="none" stroke="#202523" stroke-width="13" stroke-linecap="round" stroke-linejoin="round"><path d="M424 698C412 732 415 760 429 784M577 698C590 731 587 760 573 786"/><path d="M411 787C424 794 437 793 450 787M556 789C569 795 583 794 596 788"/></g>
  </g>
  <path d="M72 948H1008" fill="none" stroke="#DCE2DF" stroke-width="2"/><text x="72" y="1005" class="light meta">mora</text><text x="1008" y="1005" text-anchor="end" class="muted body">03</text>
</svg>
